{
	"asset":{
		"copyright":"giffraction",
		"generator":"Khronos glTF Blender I/O v3.6.27",
		"version":"2.0"
	},
	"scene":0,
	"scenes":[
		{
			"name":"Scene",
			"nodes":[
				0
			]
		}
	],
	"nodes":[
		{
			"mesh":0,
			"name":"250 cup",
			"scale":[
				1.3720369338989258,
				1.3720369338989258,
				1.3720369338989258
			]
		}
	],
	"materials":[
		{
			"doubleSided":true,
			"name":"Material.001",
			"pbrMetallicRoughness":{
				"baseColorFactor":[
					0.004241955000907183,
					0.004241955000907183,
					0.004241955000907183,
					1
				],
				"metallicFactor":0
			}
		},
		{
			"doubleSided":true,
			"name":"baked250",
			"normalTexture":{
				"index":0
			},
			"pbrMetallicRoughness":{
				"baseColorTexture":{
					"index":1
				},
				"metallicFactor":0,
				"metallicRoughnessTexture":{
					"index":2
				}
			}
		},
		{
			"doubleSided":true,
			"name":"Papper.001",
			"pbrMetallicRoughness":{
				"baseColorFactor":[
					0.800000011920929,
					0.800000011920929,
					0.800000011920929,
					1
				],
				"metallicFactor":0,
				"roughnessFactor":0.2085714340209961
			}
		}
	],
	"meshes":[
		{
			"name":"Circle.002",
			"primitives":[
				{
					"attributes":{
						"POSITION":0,
						"NORMAL":1,
						"TEXCOORD_0":2
					},
					"indices":3,
					"material":0
				},
				{
					"attributes":{
						"POSITION":4,
						"NORMAL":5,
						"TEXCOORD_0":6
					},
					"indices":7,
					"material":1
				},
				{
					"attributes":{
						"POSITION":8,
						"NORMAL":9,
						"TEXCOORD_0":10
					},
					"indices":11,
					"material":2
				}
			]
		}
	],
	"textures":[
		{
			"sampler":0,
			"source":0
		},
		{
			"sampler":0,
			"source":1
		},
		{
			"sampler":0,
			"source":2
		}
	],
	"images":[
		{
			"mimeType":"image/png",
			"name":"normal",
			"uri":"normal.png"
		},
		{
			"mimeType":"image/png",
			"name":"diffuse",
			"uri":"diffuse.png"
		},
		{
			"mimeType":"image/png",
			"name":"roughness",
			"uri":"roughness.png"
		}
	],
	"accessors":[
		{
			"bufferView":0,
			"componentType":5126,
			"count":824,
			"max":[
				0.5677140355110168,
				1.1768864393234253,
				0.5830504298210144
			],
			"min":[
				-0.6507791876792908,
				0.6250839829444885,
				-0.6517808437347412
			],
			"type":"VEC3"
		},
		{
			"bufferView":1,
			"componentType":5126,
			"count":824,
			"type":"VEC3"
		},
		{
			"bufferView":2,
			"componentType":5126,
			"count":824,
			"type":"VEC2"
		},
		{
			"bufferView":3,
			"componentType":5123,
			"count":3492,
			"type":"SCALAR"
		},
		{
			"bufferView":4,
			"componentType":5126,
			"count":27742,
			"max":[
				0.5603852868080139,
				0.6328973174095154,
				0.5521973371505737
			],
			"min":[
				-0.5452533960342407,
				-0.5450131297111511,
				-0.553441047668457
			],
			"type":"VEC3"
		},
		{
			"bufferView":5,
			"componentType":5126,
			"count":27742,
			"type":"VEC3"
		},
		{
			"bufferView":6,
			"componentType":5126,
			"count":27742,
			"type":"VEC2"
		},
		{
			"bufferView":7,
			"componentType":5123,
			"count":158976,
			"type":"SCALAR"
		},
		{
			"bufferView":8,
			"componentType":5126,
			"count":26759,
			"max":[
				0.586715817451477,
				0.6413241028785706,
				0.5764747858047485
			],
			"min":[
				-0.5685765743255615,
				-0.6544496417045593,
				-0.5788170099258423
			],
			"type":"VEC3"
		},
		{
			"bufferView":9,
			"componentType":5126,
			"count":26759,
			"type":"VEC3"
		},
		{
			"bufferView":10,
			"componentType":5126,
			"count":26759,
			"type":"VEC2"
		},
		{
			"bufferView":11,
			"componentType":5123,
			"count":150336,
			"type":"SCALAR"
		}
	],
	"bufferViews":[
		{
			"buffer":0,
			"byteLength":9888,
			"byteOffset":0,
			"target":34962
		},
		{
			"buffer":0,
			"byteLength":9888,
			"byteOffset":9888,
			"target":34962
		},
		{
			"buffer":0,
			"byteLength":6592,
			"byteOffset":19776,
			"target":34962
		},
		{
			"buffer":0,
			"byteLength":6984,
			"byteOffset":26368,
			"target":34963
		},
		{
			"buffer":0,
			"byteLength":332904,
			"byteOffset":33352,
			"target":34962
		},
		{
			"buffer":0,
			"byteLength":332904,
			"byteOffset":366256,
			"target":34962
		},
		{
			"buffer":0,
			"byteLength":221936,
			"byteOffset":699160,
			"target":34962
		},
		{
			"buffer":0,
			"byteLength":317952,
			"byteOffset":921096,
			"target":34963
		},
		{
			"buffer":0,
			"byteLength":321108,
			"byteOffset":1239048,
			"target":34962
		},
		{
			"buffer":0,
			"byteLength":321108,
			"byteOffset":1560156,
			"target":34962
		},
		{
			"buffer":0,
			"byteLength":214072,
			"byteOffset":1881264,
			"target":34962
		},
		{
			"buffer":0,
			"byteLength":300672,
			"byteOffset":2095336,
			"target":34963
		}
	],
	"samplers":[
		{
			"magFilter":9729,
			"minFilter":9987
		}
	],
	"buffers":[
		{
			"byteLength":2396008,
			"uri":"cup.bin"
		}
	]
}
